<?xml version="1.0" standalone="no"?><!DOCTYPE svg PUBLIC "-//W3C//DTD SVG 1.1//EN" "http://www.w3.org/Graphics/SVG/1.1/DTD/svg11.dtd"><svg t="1640055323572" class="icon" viewBox="0 0 2885 1024" version="1.1" xmlns="http://www.w3.org/2000/svg" p-id="1786" xmlns:xlink="http://www.w3.org/1999/xlink" width="563.4765625" height="200"><defs><style type="text/css"></style></defs><path d="M54.272 954.368c9.541818 0.698182 22.853818 0.698182 39.936 0a392.843636 392.843636 0 0 0 45.056-4.096c23.226182-2.746182 42.496-7.493818 57.856-14.336 15.36-6.842182 27.648-16.570182 36.864-29.184 9.216-12.613818 15.685818-28.346182 19.456-47.104 3.723636-18.757818 5.632-41.797818 5.632-69.12v-244.736l53.248-20.992c16.384-6.516364 31.418182-12.8 45.056-18.944l-21.504-130.048-76.8 30.72v-117.76h90.112V163.84H259.072V7.168h-133.12V163.84H26.624v124.928h99.328v163.84c-25.274182 7.493818-48.453818 14.149818-69.632 19.968-21.178182 5.818182-39.936 10.752-56.32 14.848l30.72 134.144c13.637818-3.397818 28.346182-7.493818 44.032-12.288 15.685818-4.794182 32.768-10.24 51.2-16.384v188.416c0 20.48-2.048 33.093818-6.144 37.888-4.096 4.794182-14.661818 7.493818-31.744 8.192-8.843636 0-18.618182-0.186182-29.184-0.512a276.852364 276.852364 0 0 1-30.208-2.56l25.6 130.048z m583.168-547.84c29.696 0 58.181818-0.186182 85.504-0.512a1923.956364 1923.956364 0 0 0 62.464-1.536c23.877818-1.396364 43.845818-4.096 59.904-8.192s29.323636-10.24 39.936-18.432c10.565818-8.192 18.757818-18.944 24.576-32.256s10.426182-29.882182 13.824-49.664c2.048-11.636364 3.723636-23.738182 5.12-36.352s2.746182-24.389818 4.096-35.328L808.96 194.56l-2.048 28.16a240.221091 240.221091 0 0 1-3.072 25.088c-2.746182 18.432-6.842182 30.021818-12.288 34.816-5.445818 4.794182-17.082182 7.866182-34.816 9.216-8.192 0.698182-22.714182 1.210182-43.52 1.536a4072.168727 4072.168727 0 0 1-133.632 0 854.667636 854.667636 0 0 1-45.056-1.536c-16.384-1.396364-27.136-4.794182-32.256-10.24-5.12-5.445818-7.68-17.733818-7.68-36.864a2567.447273 2567.447273 0 0 0 190.464-44.032A2168.459636 2168.459636 0 0 0 870.4 141.312L823.296 28.672a1737.960727 1737.960727 0 0 1-161.28 55.296 2479.197091 2479.197091 0 0 1-167.424 43.008V14.336H368.64V271.36c0 45.056 9.216 77.824 27.648 98.304 18.432 20.48 49.152 32.116364 92.16 34.816 15.034182 0.698182 36.165818 1.210182 63.488 1.536 27.322182 0.325818 55.808 0.512 85.504 0.512z m247.296 527.36V444.416H369.664v489.472h515.072z m-128-303.104h-264.192v-71.68h264.192v71.68z m0 186.368h-264.192v-70.656h264.192v70.656z m313.157818 139.264a1256.727273 1256.727273 0 0 0 30.208-52.736c10.565818-19.456 22.714182-43.52 36.352-72.192 13.637818-28.672 25.088-53.248 34.304-73.728 9.216-20.48 16.896-39.936 23.04-58.368l-113.664-38.912h678.912l-103.424 52.224c9.541818 13.637818 19.642182 30.021818 30.208 49.152 10.565818 19.083636 22.341818 41.658182 35.328 67.584 12.986182 24.576 23.738182 46.405818 32.256 65.536 8.517818 19.083636 16.570182 37.562182 24.064 55.296l113.664-62.464c-6.144-15.685818-13.963636-33.28-23.552-52.736a1816.203636 1816.203636 0 0 0-33.792-65.024 3250.734545 3250.734545 0 0 0-34.304-61.44c-10.565818-18.432-20.666182-34.443636-30.208-48.128h27.648V273.408h-327.68V209.92h376.832V84.992h-376.832V5.12h-137.216v268.288h-271.36v387.072h10.24c-10.938182 32.116364-28.997818 72.704-54.272 121.856-12.288 24.576-23.738182 46.405818-34.304 65.536-10.565818 19.083636-20.293818 35.514182-29.184 49.152l116.736 59.392z m593.92-424.96H1193.797818V401.408h470.016v130.048z m-145.408 399.36l118.784-34.816a858.158545 858.158545 0 0 0-13.312-48.64 1433.786182 1433.786182 0 0 0-20.48-61.952 1491.223273 1491.223273 0 0 0-23.04-61.44 509.672727 509.672727 0 0 0-20.992-46.08l-113.664 36.864c10.938182 24.576 24.203636 60.043636 39.936 106.496 7.493818 21.876364 13.963636 41.984 19.456 60.416 5.445818 18.432 9.914182 34.816 13.312 49.152z m-252.928 7.168l128-24.576c-1.396364-15.034182-3.584-31.930182-6.656-50.688a842.426182 842.426182 0 0 0-12.8-61.952c-5.445818-23.877818-10.426182-45.242182-14.848-64a491.054545 491.054545 0 0 0-13.824-48.64l-120.832 26.624c4.096 13.637818 8.192 29.509818 12.288 47.616 4.096 18.106182 8.192 39.098182 12.288 62.976 4.794182 23.226182 8.378182 44.032 10.752 62.464 2.373818 18.432 4.282182 35.141818 5.632 50.176z m691.013818-393.216c30.72-11.636364 60.416-23.552 89.088-35.84a1909.434182 1909.434182 0 0 0 84.992-38.912v52.224h502.784V464.896c28.672 13.637818 57.716364 26.810182 87.04 39.424 29.323636 12.613818 59.392 24.762182 90.112 36.352l53.248-113.664c-79.872-26.624-149.317818-55.296-208.384-86.016-59.066182-30.72-109.754182-62.464-152.064-95.232H2625.163636V175.104h208.896v-107.52H2625.163636V0h-135.168v67.584h-216.064V0h-136.192v67.584H1928.843636v107.52h208.896V245.76h121.856c-47.104 35.514182-101.701818 69.632-163.84 102.4a1315.84 1315.84 0 0 1-201.728 84.992l62.464 111.616zM2489.995636 235.52a1726.836364 1726.836364 0 0 1-18.944-15.36 236.683636 236.683636 0 0 1-16.896-15.36h-144.384c-11.636364 10.938182-23.552 20.805818-35.84 29.696V175.104h216.064V235.52z m47.104 180.224h-304.128c30.021818-17.082182 57.530182-33.978182 82.432-50.688 24.901818-16.756364 47.290182-33.28 67.072-49.664 17.733818 15.685818 39.749818 31.930182 66.048 48.64 26.298182 16.756364 55.808 33.978182 88.576 51.712z m153.6 548.864l92.16-84.992c-10.24-11.636364-22.853818-25.413818-37.888-41.472a3021.824 3021.824 0 0 0-48.128-50.176 2668.683636 2668.683636 0 0 0-103.424-99.84h219.136v-113.664H1953.419636v113.664h212.992c-17.733818 18.432-35.141818 35.84-52.224 52.224a399.825455 399.825455 0 0 1-46.08 38.912c-8.843636 6.144-19.968 12.288-33.28 18.432a181.061818 181.061818 0 0 1-40.448 13.312l27.648 115.712c203.403636-4.096 406.528-13.312 609.28-27.648 11.636364 12.288 22.528 24.064 32.768 35.328 10.24 11.264 19.083636 21.317818 26.624 30.208z m-474.112-153.6a429.614545 429.614545 0 0 0 59.392-50.176c19.781818-19.781818 40.96-44.032 63.488-72.704h188.416l-57.344 53.248a4802.048 4802.048 0 0 1 59.392 55.296 4645.608727 4645.608727 0 0 1-313.344 14.336z" p-id="1787"></path></svg>