<?xml version="1.0" encoding="UTF-8"?>
<svg width="114px" height="32px" viewBox="0 0 114 32" version="1.1" xmlns="http://www.w3.org/2000/svg" xmlns:xlink="http://www.w3.org/1999/xlink">
    <!-- Generator: Sketch 60.1 (88133) - https://sketch.com -->
    <title>icon_nav_logo</title>
    <desc>Created with Sketch.</desc>
    <g id="页面-1" stroke="none" stroke-width="1" fill="none" fill-rule="evenodd">
        <g id="登录记录" transform="translate(-20.000000, -14.000000)" fill="#FFFFFF">
            <g id="icon_nav_logo" transform="translate(20.000000, 14.000000)">
                <g id="资源-4" fill-rule="nonzero">
                    <path d="M2.83789433,26.4610183 C2.83789433,26.4610183 0.0380864553,26.4610183 0.0380864553,28.8940173 C0.0380864553,31.3800653 2.83789433,31.3265629 2.83789433,31.3265629 L4.42482997,31.3265629 L4.42482997,29.7740865 C4.36700966,29.9385893 4.29557693,30.0979859 4.21127378,30.2506206 C3.95323187,30.7211449 3.45655139,31.0108171 2.91996158,31.0037349 L2.8986513,31.0037349 C2.43914382,30.9884052 2.01451673,30.7547845 1.75560423,30.3748549 C1.49942747,30.003512 1.35342939,29.4494448 1.35342939,28.8944707 C1.35342939,28.3394966 1.49942747,27.7854294 1.75560423,27.4140865 C2.01441511,27.0340452 2.43910381,26.8003906 2.8986513,26.7852065 L2.91996158,26.7852065 C3.45741183,26.7766347 3.95534217,27.0666285 4.21308742,27.5383208 C4.29739057,27.6909555 4.3688233,27.8503521 4.42664361,28.0148549 L4.42664361,26.4610183 L2.83789433,26.4610183 Z" id="路径"></path>
                    <path d="M9.08770029,26.4610183 L9.08770029,29.468488 C9.09222738,29.939804 8.90978642,30.3937054 8.58033429,30.7307819 C7.77598463,31.5346782 6.63293756,31.144292 6.63293756,31.144292 L6.63293756,26.4610183 L5.22509894,26.4610183 L5.22509894,29.8915197 C5.2631854,30.5466974 5.80092988,30.9860519 6.23348319,31.2354275 C6.45697714,31.364745 6.71070454,31.4326351 6.96891451,31.4322095 L9.41732949,31.4276734 L9.41732949,26.4610183 L9.08770029,26.4610183 Z" id="路径"></path>
                    <path d="M25.833952,28.8083228 C25.6788857,26.813318 23.8620711,26.5240423 23.340196,26.4823285 C23.0341441,26.4537637 22.3136753,26.4224784 21.7106398,26.5947743 L21.6829817,26.6020288 L21.6829817,26.6020288 C20.9498175,26.8101441 19.9600231,27.3587704 19.8480307,28.8078694 C19.8480307,28.8078694 19.8389625,28.8985514 19.8407762,28.9470663 C19.8425898,28.9955812 19.8480307,29.0858098 19.8480307,29.0858098 C19.9790663,30.7688684 21.2921422,31.2376945 22.0130644,31.3682767 L22.0638463,31.3768915 L22.1023862,31.3832392 C22.1264169,31.3873199 22.1504476,31.3904938 22.174025,31.3936676 L22.1826398,31.3936676 C22.5397095,31.4338391 22.8997046,31.4412758 23.2581287,31.4158847 C23.6294717,31.3982017 25.6689107,31.2036888 25.8334986,29.0844496 C25.8334986,29.0844496 25.8425668,28.9937675 25.8407531,28.9457061 C25.8389395,28.8976446 25.833952,28.8083228 25.833952,28.8083228 Z M24.2121165,28.9475197 C24.2121165,28.9928607 24.2121165,29.0382017 24.2075696,29.0862632 L24.2121165,29.0862632 C24.2130903,29.5115417 24.1389524,29.9336518 23.9931066,30.3331412 C23.8113006,30.8108451 23.3530283,31.1263472 22.8418982,31.1257057 L22.8418982,31.1257057 C22.330271,31.1269132 21.8713117,30.811311 21.6893295,30.3331412 C21.5435856,29.9334809 21.4696006,29.5112134 21.4707709,29.0858098 C21.4707709,29.0858098 21.4707709,28.9924073 21.4707709,28.9470663 C21.4707709,28.9017253 21.4707709,28.8078694 21.4707709,28.8078694 C21.4695625,28.3817926 21.5438617,27.9588709 21.6902363,27.5587243 C21.87219,27.0811989 22.330429,26.7659002 22.8414448,26.7666155 L22.8414448,26.7666155 C23.3522949,26.7660886 23.810305,27.0813541 23.9921998,27.5587243 C24.1387818,27.9589859 24.2132354,28.3820666 24.2121165,28.8083228 L24.2071162,28.8083228 C24.2093833,28.8559308 24.2121165,28.9017253 24.2121165,28.9475197 Z" id="形状"></path>
                    <path d="M30.0420519,26.4601114 L30.0420519,26.6414755 L29.1039462,29.4897983 L27.8294102,26.4578444 L26.3852988,26.4578444 L26.3852988,31.4276734 L27.9368684,31.4276734 L27.9019558,31.4154313 C27.5857999,31.3011393 27.3090231,31.0986312 27.1044073,30.8318924 C26.8619275,30.5127813 26.7278388,30.1244961 26.7217291,29.7237579 L26.7217291,27.1882882 L28.5408108,31.2014217 L28.6432815,31.4281268 L28.8205648,31.4281268 L30.0420519,27.7192315 L30.0420519,31.4281268 L31.4793622,31.4281268 L31.4793622,26.4601114 L30.0420519,26.4601114 Z" id="路径"></path>
                    <path d="M14.3486186,29.879731 C14.3486186,29.0400154 13.4948473,28.6392008 13.4948473,28.6392008 L12.0239846,28.0121345 L11.4381787,27.7623055 C11.1339404,27.5986244 11.0369107,27.4122728 11.0301095,27.2449645 C11.0294897,27.1174404 11.0801548,26.9950192 11.1707119,26.9052295 C11.261269,26.8154399 11.3841169,26.7658184 11.5116311,26.7675235 L12.2992046,26.7675235 C13.0732448,26.7661041 13.7656164,27.248699 14.0321383,27.9754083 C14.0402997,27.9980788 14.0443804,26.4578444 14.0443804,26.4578444 L11.3978252,26.4578444 C10.8374102,26.4578444 10.3096407,26.7675235 10.0725072,27.2739827 C9.98292005,27.4620681 9.93644898,27.66778 9.93648415,27.8761114 C9.93413735,27.9214221 9.93413735,27.9668238 9.93648415,28.0121345 C9.98499904,28.8282728 10.7902555,29.1261633 10.7902555,29.1261633 L12.5531143,29.879731 C12.5531143,29.879731 13.2273353,30.1390817 13.2441114,30.5698213 L13.2441114,30.5698213 C13.249508,30.5950263 13.2525439,30.6206793 13.2531796,30.6464476 C13.2537995,30.7739717 13.2031344,30.8963929 13.1125772,30.9861826 C13.0220201,31.0759723 12.8991722,31.1255937 12.771658,31.1238886 L12.0942632,31.1238886 L11.9636811,31.1238886 L11.9142594,31.1238886 C11.1402192,31.125308 10.4478476,30.6427131 10.1813256,29.9160038 C10.1727109,29.8928799 10.1686302,29.8806378 10.1686302,29.8806378 L10.1686302,31.4331143 L12.8890913,31.4331143 C13.4495062,31.4331143 13.9772757,31.1238886 14.2144092,30.616976 C14.2951162,30.4410528 14.3486186,30.2469933 14.3486186,29.879731 Z" id="路径"></path>
                    <path d="M14.5630817,26.4610183 L14.5630817,27.9790355 C14.8331845,27.251225 15.528318,26.7689207 16.3046302,26.7706974 L16.3540519,26.7706974 L16.3540519,31.4322075 L17.7618905,31.4322075 L17.7618905,26.7706974 L17.8113122,26.7706974 C18.5876657,26.7687882 19.2828676,27.2511399 19.5528607,27.9790355 L19.5528607,26.4610183 L14.5630817,26.4610183 Z" id="路径"></path>
                    <polygon id="路径" points="31.6589126 4.16457253 31.6589126 0.0126954851 24.9307589 0.0126954851 24.9307589 4.19177714 31.6570989 4.13600768"></polygon>
                    <path d="M30.4882075,5.52253602 C29.1470202,5.62364649 26.9937752,5.78642075 24.9307589,6.12874544 L24.9307589,23.7664015 L31.6589126,23.7664015 L31.6589126,5.42595965 C31.3719039,5.45543132 30.980611,5.48626321 30.4882075,5.52253602 Z" id="路径"></path>
                    <path d="M3.02560615,4.16502594 L2.72680884,2.3241806 L4.09701441,3.589195 C4.89754459,4.33260387 5.77977046,4.98286518 6.72679347,5.52752354 L6.72679347,0.0122420749 L0,0.0122420749 L0,23.7668549 L6.7281537,23.7668549 L6.7281537,10.4075773 C3.64179059,7.64857637 3.03422094,4.2167147 3.02560615,4.16502594 Z" id="路径"></path>
                    <path d="M17.6648607,3.18475312 L17.6825437,3.18475312 L17.7369529,3.18475312 C18.9747627,3.18475312 19.940073,3.69892027 20.4678425,4.06074159 L20.4678425,0 L13.7383285,0 L13.7383285,6.19539673 C14.4139097,4.95078578 15.6716695,3.30989433 17.6648607,3.18475312 Z" id="路径"></path>
                    <path d="M13.9233199,17.8675351 C13.8562152,17.6612334 13.796365,17.4571988 13.7396888,17.2549779 L13.7396888,23.7546129 L18.5345014,23.7546129 C16.4134486,22.6795773 14.8369414,20.6755043 13.9233199,17.8675351 Z" id="路径"></path>
                    <path d="M19.7319577,10.2076234 C19.7871407,10.585047 19.820597,10.9653288 19.8321614,11.3465898 C19.8013295,13.597318 18.9824707,14.5658021 18.2597349,15.4227474 C17.7791201,15.9922305 17.3637963,16.4841806 17.1597618,17.3592622 C16.8160768,18.8487147 16.9647954,19.8679808 17.6965994,20.9081037 C19.0885687,21.1397963 19.9981095,22.1400192 20.4678425,22.8178674 L20.4678425,7.50620557 C19.4966378,8.34274736 19.5954813,9.14029587 19.7319577,10.2076234 Z" id="路径"></path>
                    <path d="M17.7410336,3.82664333 C19.3905399,3.81272622 20.5068357,4.87234582 20.5068357,4.87234582 L31.7006263,4.78166378 C30.0483996,4.96302786 23.493902,5.1829318 20.4229549,6.75445149 C18.3753545,8.23075504 19.1987474,9.73244957 19.2268588,11.3397887 C19.1792507,14.8160845 17.141172,14.7639424 16.5712354,17.2168915 C16.1758617,18.9303285 16.3617598,20.199877 17.3814793,21.5143132 C19.3429318,21.6725533 20.3050682,23.733756 20.3050682,23.733756 C13.7124841,21.961829 13.7836695,12.9326186 13.7836695,12.9326186 C4.89682997,11.4572219 3.69619981,4.06164841 3.69619981,4.06164841 C8.60572526,8.59575024 13.7750548,7.78505283 13.7750548,7.78505283 C13.7750548,7.78505283 14.9743247,4.00043804 17.7410336,3.82664333 Z" id="路径"></path>
                </g>
                <text id="数据银行" font-family="PingFangSC-Medium, PingFang SC" font-size="18" font-weight="400">
                    <tspan x="42" y="22">数据银行</tspan>
                </text>
            </g>
        </g>
    </g>
</svg>