<?xml version="1.0" standalone="no"?><!DOCTYPE svg PUBLIC "-//W3C//DTD SVG 1.1//EN" "http://www.w3.org/Graphics/SVG/1.1/DTD/svg11.dtd"><svg t="1640055313306" class="icon" viewBox="0 0 7354 1024" version="1.1" xmlns="http://www.w3.org/2000/svg" p-id="1659" xmlns:xlink="http://www.w3.org/1999/xlink" width="1436.328125" height="200"><defs><style type="text/css"></style></defs><path d="M263.447273 47.010909v216.064A568.040727 568.040727 0 0 1 160.488727 187.112727L106.775273 137.588364l11.682909 72.098909c0.372364 2.048 24.203636 136.424727 145.035636 244.503272V977.454545H0V47.010909h263.447273z m2359.389091 0l0.046545 876.544s213.969455 73.029818 364.450909-77.405091c62.277818-62.277818 94.952727-148.200727 94.952727-236.218182V47.057455h61.672728v929.559272L2685.719273 977.454545a273.873455 273.873455 0 0 1-137.681455-36.864c-80.896-46.592-181.620364-128.837818-188.695273-251.531636V47.057455h263.493819z m1387.52 0v16.011636c-0.232727 60.416-1.024 271.639273-2.327273 267.962182-49.524364-136.052364-179.572364-226.071273-324.421818-226.071272l-147.316364-0.186182c-49.524364 0-91.601455 39.889455-90.112 89.367272 0.930909 31.278545 19.083636 66.234182 75.962182 96.768l109.707636 46.731637 275.223273 117.387636 1.582545 0.791273c16.663273 8.378182 158.254545 83.549091 158.254546 231.424 0 68.421818-9.960727 104.727273-25.367273 137.448727-44.776727 94.859636-143.220364 152.762182-248.133818 152.762182H3284.619636v-290.583273s0.744727 2.327273 2.327273 6.656c49.524364 136.005818 179.572364 226.024727 324.375273 226.024728h9.309091l24.343272 0.232727h126.836364c49.477818 0 91.554909-39.889455 90.112-89.320727a84.805818 84.805818 0 0 0-1.722182-14.382546c-3.118545-80.616727-129.396364-129.210182-129.396363-129.210182l-329.821091-140.613818s-150.807273-55.994182-159.790546-208.616727a247.016727 247.016727 0 0 1-0.325818-25.134546c0-42.216727 10.286545-79.872 25.693091-112.64 44.730182-94.859636 143.220364-152.762182 248.087273-152.762181h495.709091z m1030.609454 0v284.066909c-49.431273-136.098909-181.061818-226.210909-325.911273-226.210909h-9.262545V977.454545H4442.298182V104.913455h-9.216c-144.896 0-276.48 90.065455-325.957818 226.210909V47.010909h933.888zM1239.924364 259.118545V977.454545h-263.447273V286.626909c80.756364-13.498182 165.096727-19.828364 217.6-23.784727 19.316364-1.396364 34.629818-2.653091 45.847273-3.770182z m4205.009454-187.019636c112.872727-32.256 247.668364-26.437818 304.919273-21.085091 97.605818 7.819636 437.713455 61.905455 466.711273 435.386182 0 0 1.722182 17.314909 1.396363 26.018909 0.325818 8.610909-1.396364 25.972364-1.396363 25.972364-30.859636 396.613818-412.532364 433.012364-482.071273 436.363636-48.407273 3.304727-130.606545 5.166545-201.262546-4.189091l-1.62909-0.232727a368.826182 368.826182 0 0 1-20.619637-3.072l-9.448727-1.629091c-134.981818-24.482909-380.741818-112.267636-405.271273-427.240727 0 0-1.629091-17.361455-1.303273-25.972364v-3.630545c0.046545-9.122909 1.303273-22.341818 1.303273-22.341819 21.131636-271.266909 206.242909-373.992727 343.458909-412.951272 0.372364-0.139636 3.770182-1.070545 5.213091-1.396364zM538.065455 722.338909c2.234182 7.912727 4.561455 15.918545 7.168 24.017455 35.84 109.986909 97.652364 188.509091 180.596363 230.586181h-187.764363zM6589.998545 46.824727l238.592 567.435637 175.569455-533.038546v-34.443636h269.032727v929.792h-269.032727V282.437818l-228.677818 694.132364h-33.093818l-19.223273-42.356364-340.433455-751.150545v474.251636c1.582545 76.986182 27.089455 149.457455 71.586909 207.36a329.634909 329.634909 0 0 0 155.834182 111.895273h-290.397091V46.824727h270.242909zM694.830545 196.375273c64.605091-0.465455 108.264727 41.006545 108.264728 41.006545l438.365091-3.630545c-64.698182 7.074909-321.349818 15.732364-441.716364 77.265454-60.136727 43.333818-56.971636 87.272727-51.2 133.12l1.629091 13.125818c1.396364 10.984727 2.56 22.062545 2.746182 33.326546-1.024 75.124364-25.786182 108.218182-51.525818 138.845091l-9.63491 11.496727c-17.594182 21.085091-34.350545 43.380364-42.821818 79.825455-15.499636 67.118545-8.192 116.829091 31.697455 168.354909 76.8 6.190545 114.501818 86.946909 114.501818 86.946909-240.919273-64.698182-254.603636-377.111273-255.348364-418.443637l-0.046545-3.397818v-1.163636c-347.880727-57.716364-395.031273-347.415273-395.031273-347.415273C336.989091 383.069091 539.508364 351.418182 539.508364 351.418182s47.010909-148.200727 155.322181-155.089455zM2209.978182 47.057455v290.536727s-12.939636-39.377455-40.029091-89.181091a271.034182 271.034182 0 0 0-242.036364-140.893091l-3.956363 0.046545c-85.876364 2.141091-165.096727 47.010909-213.922909 117.713455-47.988364 69.445818-75.310545 173.149091-75.310546 277.085091 0 103.889455 27.322182 207.546182 75.310546 277.038545 48.779636 70.702545 128 115.572364 213.922909 117.666909l3.956363 0.093091a270.894545 270.894545 0 0 0 242.036364-140.893091c27.089455-49.803636 40.029091-89.227636 40.029091-89.227636v290.629818h-304.872727c-63.906909-0.930909-516.514909-22.807273-516.51491-455.307636 0-444.369455 499.060364-455.074909 523.124364-455.307636h298.263273zM801.652364 340.526545v599.738182c-18.432-26.530909-53.992727-65.722182-108.544-74.845091-28.672-40.680727-34.443636-80.570182-21.038546-138.984727 8.005818-34.257455 24.203636-53.527273 43.101091-75.869091 28.299636-33.419636 60.369455-71.447273 61.533091-159.650909-0.232727-16.058182-2.094545-30.533818-3.863273-44.590545-5.352727-41.797818-9.309091-72.936727 28.811637-105.797819z m4854.737454-236.218181a230.120727 230.120727 0 0 0-215.365818 148.200727c-23.272727 61.346909-40.075636 138.379636-41.053091 233.844364l0.139636 14.010181v23.970909c0 7.214545-0.139636 14.010182-0.139636 14.010182 0.930909 95.232 17.687273 172.218182 40.913455 233.425455a230.074182 230.074182 0 0 0 215.412363 148.340363 230.306909 230.306909 0 0 0 215.738182-148.340363c23.179636-61.207273 39.889455-138.193455 40.866909-233.425455h-0.884363c0.465455-8.890182 0.605091-17.408 0.791272-25.972363a999.936 999.936 0 0 0-0.791272-26.018909h0.930909c-1.024-95.418182-17.826909-172.497455-41.053091-233.844364a230.306909 230.306909 0 0 0-215.505455-148.200727zM801.698909 46.545455v158.999272c-20.759273-14.149818-58.554182-34.304-107.054545-34.304h-2.094546l-0.698182 0.046546c-78.056727 4.887273-127.348364 69.166545-153.739636 117.946182V46.545455h263.540364z m438.272 0.465454v162.676364l-0.093091-1.163637-263.447273 2.187637V47.010909h263.540364z" p-id="1660"></path></svg>