<?xml version="1.0" encoding="UTF-8"?>
<svg width="82px" height="23px" viewBox="0 0 82 23" version="1.1" xmlns="http://www.w3.org/2000/svg" xmlns:xlink="http://www.w3.org/1999/xlink">
    <title>logo_open</title>
    <g id="页面-1" stroke="none" stroke-width="1" fill="none" fill-rule="evenodd">
        <g id="Extra-Large" transform="translate(-1607.000000, -2631.000000)" fill="#1D2129" fill-rule="nonzero">
            <g id="开放平台" transform="translate(1607.144000, 2631.850000)">
                <path d="M4.554,9.042 L4.554,4.004 L1.1,4.004 L1.1,1.276 L18.656,1.276 L18.656,4.004 L15.356,4.004 L15.356,9.042 L19.646,9.042 L19.646,11.88 L15.356,11.88 L15.356,20.57 L12.452,20.57 L12.452,11.88 L7.458,11.88 C7.38466667,12.8773333 7.25633333,13.7903333 7.073,14.619 C6.88966667,15.4476667 6.60733333,16.2323333 6.226,16.973 C5.84466667,17.7136667 5.34966667,18.4323333 4.741,19.129 C4.13233333,19.8256667 3.38066667,20.5406667 2.486,21.274 L0.352,19.008 C1.11466667,18.392 1.749,17.82 2.255,17.292 C2.761,16.764 3.17166667,16.2323333 3.487,15.697 C3.80233333,15.1616667 4.037,14.5896667 4.191,13.981 C4.345,13.3723333 4.444,12.672 4.488,11.88 L0,11.88 L0,9.042 L4.554,9.042 Z M7.524,9.042 L12.452,9.042 L12.452,4.004 L7.524,4.004 L7.524,9.042 Z" id="形状"></path>
                <path d="M26.836,0.484 C26.8946667,0.733333333 26.9533333,1.02666667 27.012,1.364 C27.0706667,1.70133333 27.1293333,2.08266667 27.188,2.508 L27.254,3.102 L30.51,3.102 L30.51,5.544 C30.9353333,4.62 31.3056667,3.70333333 31.621,2.794 C31.9363333,1.88466667 32.204,0.99 32.424,0.11 L35.306,0.594 C35.174,1.01933333 35.031,1.45933333 34.877,1.914 C34.723,2.36866667 34.558,2.83066667 34.382,3.3 L40.278,3.3 L40.278,6.204 L38.826,6.204 C38.3713333,9.43066667 37.5646667,12.1073333 36.406,14.234 L36.274,14.454 C37.4326667,15.95 38.936,17.336 40.784,18.612 L38.958,21.12 C38.078,20.46 37.2786667,19.7816667 36.56,19.085 C35.8413333,18.3883333 35.1886667,17.666 34.602,16.918 C34.0006667,17.6366667 33.326,18.3516667 32.578,19.063 C31.83,19.7743333 30.994,20.482 30.07,21.186 L28.42,19.184 C27.98,19.6826667 27.2906667,19.998 26.352,20.13 C26.0733333,20.1593333 25.7763333,20.185 25.461,20.207 C25.1456667,20.229 24.878,20.2326667 24.658,20.218 L24.108,17.27 C24.3573333,17.2993333 24.5553333,17.3176667 24.702,17.325 C24.8486667,17.3323333 25.0246667,17.336 25.23,17.336 C25.538,17.336 25.7836667,17.3213333 25.967,17.292 C26.1503333,17.2626667 26.2933333,17.193 26.396,17.083 C26.4986667,16.973 26.572,16.819 26.616,16.621 C26.66,16.423 26.6966667,16.148 26.726,15.796 C26.7993333,15.1066667 26.8543333,14.3256667 26.891,13.453 C26.9276667,12.5803333 26.9606667,11.682 26.99,10.758 L25.032,10.758 C24.9733333,11.726 24.9,12.5986667 24.812,13.376 C24.724,14.1533333 24.5993333,14.894 24.438,15.598 C24.2326667,16.5366667 23.9503333,17.413 23.591,18.227 C23.2316667,19.041 22.7733333,19.9026667 22.216,20.812 L19.598,19.338 C20.1113333,18.5753333 20.5403333,17.82 20.885,17.072 C21.2296667,16.324 21.5046667,15.5393333 21.71,14.718 C21.9593333,13.7793333 22.1316667,12.7673333 22.227,11.682 C22.3223333,10.5966667 22.3846667,9.35733333 22.414,7.964 L22.414,5.962 L20.786,5.962 L20.786,3.102 L24.416,3.102 L24.35,2.464 C24.306,2.08266667 24.2656667,1.76733333 24.229,1.518 C24.1923333,1.26866667 24.152,1.02666667 24.108,0.792 L26.836,0.484 Z M29.674,9.57 C29.63,10.7433333 29.5786667,11.8873333 29.52,13.002 C29.4613333,14.1166667 29.3953333,15.136 29.322,16.06 C29.2633333,16.9106667 29.146,17.6 28.97,18.128 C30.6566667,16.9106667 31.9986667,15.6713333 32.996,14.41 C32.2333333,13.002 31.654,11.4986667 31.258,9.9 C31.214,9.97333333 31.17,10.0393333 31.126,10.098 C31.082,10.1566667 31.0453333,10.2226667 31.016,10.296 L29.674,9.57 Z M34.602,11.748 C35.306,10.1933333 35.79,8.34533333 36.054,6.204 L33.172,6.204 L33.106,6.38 C33.3406667,8.33066667 33.8393333,10.12 34.602,11.748 Z M29.278,7.942 C29.454,7.61933333 29.63,7.293 29.806,6.963 C29.982,6.633 30.1506667,6.29933333 30.312,5.962 L25.164,5.962 L25.12,7.942 L29.278,7.942 Z" id="形状"></path>
                <path d="M49.36,10.912 L49.36,3.718 L42.034,3.718 L42.034,0.902 L59.678,0.902 L59.678,3.718 L52.33,3.718 L52.33,10.912 L60.536,10.912 L60.536,13.882 L52.33,13.882 L52.33,20.504 L49.36,20.504 L49.36,13.882 L41.132,13.882 L41.132,10.912 L49.36,10.912 Z M53.21,9.13 C53.958,8.23533333 54.6216667,7.38466667 55.201,6.578 C55.7803333,5.77133333 56.3266667,4.94266667 56.84,4.092 L59.282,5.39 C58.754,6.34333333 58.1673333,7.26733333 57.522,8.162 C56.8766667,9.05666667 56.18,9.922 55.432,10.758 L53.21,9.13 Z M44.674,4.026 C44.9526667,4.31933333 45.2606667,4.67133333 45.598,5.082 C45.9353333,5.49266667 46.2946667,5.96933333 46.676,6.512 C47.4826667,7.58266667 48.0693333,8.45533333 48.436,9.13 L46.104,10.78 C45.9133333,10.4133333 45.6823333,10.0063333 45.411,9.559 C45.1396667,9.11166667 44.8133333,8.624 44.432,8.096 C44.0653333,7.55333333 43.7243333,7.08033333 43.409,6.677 C43.0936667,6.27366667 42.8113333,5.92533333 42.562,5.632 L44.674,4.026 Z" id="形状"></path>
                <path d="M79.1,10.648 L79.1,20.284 L63.568,20.284 L63.568,10.648 L79.1,10.648 Z M74.964,2.002 C75.3893333,2.33933333 75.8586667,2.761 76.372,3.267 C76.8853333,3.773 77.4573333,4.356 78.088,5.016 C78.7186667,5.676 79.287,6.303 79.793,6.897 C80.299,7.491 80.7133333,8.00066667 81.036,8.426 L78.99,10.186 C78.8433333,9.98066667 78.682,9.76433333 78.506,9.537 C78.33,9.30966667 78.1393333,9.07133333 77.934,8.822 C76.702,8.89533333 75.437,8.965 74.139,9.031 C72.841,9.097 71.532,9.15566667 70.212,9.207 C68.892,9.25833333 67.5793333,9.30233333 66.274,9.339 C64.9686667,9.37566667 63.7,9.40133333 62.468,9.416 L62.006,6.71 C62.3433333,6.63666667 62.6623333,6.534 62.963,6.402 C63.2636667,6.27 63.5386667,6.116 63.788,5.94 C64.404,5.52933333 65.284,4.69333333 66.428,3.432 C67,2.80133333 67.5133333,2.2 67.968,1.628 C68.4226667,1.056 68.8186667,0.513333333 69.156,0 L71.906,1.232 C71.5246667,1.804 71.1396667,2.32833333 70.751,2.805 C70.3623333,3.28166667 69.9553333,3.762 69.53,4.246 C69.0313333,4.80333333 68.584,5.28366667 68.188,5.687 C67.792,6.09033333 67.44,6.402 67.132,6.622 C67.484,6.622 67.968,6.61466667 68.584,6.6 C69.2,6.58533333 69.8893333,6.56333333 70.652,6.534 C71.4146667,6.50466667 72.225,6.468 73.083,6.424 C73.941,6.38 74.788,6.32866667 75.624,6.27 C75.3746667,6.006 75.1436667,5.76766667 74.931,5.555 C74.7183333,5.34233333 74.513,5.137 74.315,4.939 C74.117,4.741 73.9153333,4.54666667 73.71,4.356 C73.5046667,4.16533333 73.2846667,3.96 73.05,3.74 L74.964,2.002 Z M66.472,17.468 L76.174,17.468 L76.174,13.508 L66.472,13.508 L66.472,17.468 Z" id="形状"></path>
            </g>
        </g>
    </g>
</svg>